Coordinates
version=1
nRows=16
nColumns=33
inDegrees=yes

Units are S.I. units (second, meters, Newtons, ...)
Angles are in degrees.

endheader
time	ground_thorax_rot_x	ground_thorax_rot_y	ground_thorax_rot_z	ground_thorax_tx	ground_thorax_ty	ground_thorax_tz	clav_prot_r	clav_elev_r	scapula_abduction_r	scapula_elevation_r	scapula_upward_rot_r	scapula_winging_r	shoulder_elv_r	plane_of_elev_r	axial_rot_r	elbow_flexion_r	pro_sup_r	wrist_flex_r	wrist_dev_r	clav_prot_l	clav_elev_l	scapula_abduction_l	scapula_elevation_l	scapula_upward_rot_l	scapula_winging_l	shoulder_elv_l	plane_of_elev_l	axial_rot_l	elbow_flexion_l	pro_sup_l	wrist_flex_l	wrist_dev_l
      2.48000000	      3.26507485	     -7.51140048	      9.32542635	     -0.11480163	      1.04028716	      0.00758330	      5.97490253	     -6.18310812	     15.71326751	     -3.53340681	     10.15009334	     -4.94485325	     46.50591721	     30.32348398	     -2.05888654	     61.94141992	     47.40608839	      5.75532380	     14.66154116	      9.41726462	    -11.68125281	    -14.40990674	      2.00932756	     -8.52212808	      0.93920869	     50.58786497	     29.89696309	      3.97039497	     72.91697588	     17.51283607	     -4.28163045	     -7.04757685
      2.49000000	      3.34762100	     -7.53391641	      9.53963771	     -0.11439078	      1.04121397	      0.00773302	      5.82784960	     -6.23563655	     15.78216093	     -3.77208524	     10.66704495	     -4.97314184	     46.86283714	     30.74766506	     -2.56579248	     62.57481355	     47.34939537	      5.79714565	     14.55614592	      9.33731197	    -11.72873152	    -14.39894465	      2.20736284	     -8.17865210	      0.92644530	     50.71504761	     30.46380882	      4.33504323	     73.65391377	     17.45728036	     -4.45650749	     -7.16131976
      2.50000000	      3.38145916	     -7.52932977	      9.67821871	     -0.11400174	      1.04200169	      0.00785529	      5.72286242	     -6.24919736	     15.94718726	     -3.98902080	     11.22305553	     -5.04909953	     47.22655329	     31.18710778	     -3.22595148	     63.16327997	     47.29572603	      5.80378970	     14.42961761	      9.28283316	    -11.69310653	    -14.43947344	      2.33742204	     -7.81184649	      0.96938042	     50.88221592	     31.15590027	      4.68552208	     74.33295402	     17.43064280	     -4.65949036	     -7.26936903
      2.51000000	      3.38822322	     -7.53564688	      9.79612289	     -0.11365297	      1.04264627	      0.00790549	      5.65535143	     -6.20344086	     16.16898037	     -4.14777976	     11.76973942	     -5.16709357	     47.57879175	     31.60037439	     -3.98745497	     63.84274677	     47.19725143	      5.79523661	     14.32081601	      9.25006197	    -11.56470557	    -14.51963662	      2.38026674	     -7.44602358	      1.06666062	     51.06982230	     31.93402708	      5.05127447	     74.97519780	     17.43051759	     -4.89311494	     -7.37217761
      2.52000000	      3.16960105	     -7.50178106	     10.11546907	     -0.11407293	      1.04223921	      0.00753055	      6.31211675	     -5.56477109	     17.37977830	     -3.65947109	     11.99553832	     -5.84324035	     48.20773360	     31.76889562	     -5.77920727	     64.73265248	     47.06241420	      5.74381007	     14.45736561	      9.66529057	    -10.67410014	    -15.24187241	      1.59382643	     -7.34643868	      1.72152181	     51.24242735	     33.39901908	      5.67643113	     75.37403454	     17.74105990	     -5.68453123	     -7.51831296
      2.53000000	      3.25602886	     -7.52143652	     10.21657275	     -0.11370271	      1.04303920	      0.00766796	      6.17523594	     -5.60554778	     17.49852074	     -3.89527047	     12.54927624	     -5.89129977	     48.57980823	     32.19082346	     -6.32898312	     65.37454858	     47.02667055	      5.78213987	     14.36121273	      9.58280860	    -10.68657509	    -15.25560590	      1.78758200	     -6.93542926	      1.73589576	     51.43468546	     33.96379825	      6.05833695	     76.06469509	     17.72106220	     -5.84331310	     -7.62120378
      2.54000000	      3.29727819	     -7.50019392	     10.24556243	     -0.11338803	      1.04365065	      0.00773113	      6.06620514	     -5.57165611	     17.68330580	     -4.07471965	     13.13568902	     -5.99025645	     48.95388478	     32.58967881	     -7.03475426	     66.04320418	     47.00975073	      5.81245515	     14.22759224	      9.53568442	    -10.61807684	    -15.33649181	      1.91149333	     -6.51090044	      1.81219357	     51.64885274	     34.66881657	      6.44204230	     76.69255389	     17.73437834	     -6.01696365	     -7.71207058
      2.55000000	      3.22389337	     -7.40571254	     10.20233960	     -0.11336148	      1.04375826	      0.00751989	      6.12265346	     -5.29524047	     18.15615035	     -4.05259175	     13.76264038	     -6.28213335	     49.42920816	     32.91536238	     -8.14679240	     66.65992318	     47.16253818	      5.85411881	     14.01123669	      9.64648485	    -10.31161787	    -15.68525468	      1.81640447	     -6.08069401	      2.09109881	     51.93808314	     35.66186850	      6.85399691	     77.14536169	     17.88737354	     -6.27470242	     -7.78888069
      2.56000000	      3.35898650	     -7.41485726	     10.53349342	     -0.11313493	      1.04463102	      0.00756095	      6.00711971	     -5.37400418	     18.21919588	     -4.25762804	     14.15000858	     -6.28475340	     49.60726524	     33.21472725	     -8.64994445	     67.32254840	     47.14494860	      5.89860368	     13.85055858	      9.60957311	    -10.34457061	    -15.69109259	      1.92377587	     -5.90412149	      2.09014204	     51.93243527	     36.18270637	      7.23263787	     77.87771597	     17.85830131	     -6.41101691	     -7.88275819
      2.57000000	      3.10815323	     -7.32263899	     10.54758540	     -0.11354788	      1.04386693	      0.00722852	      6.61640705	     -4.51126069	     19.42610876	     -3.62868557	     14.52287809	     -7.05062278	     50.20435955	     33.27428553	    -10.41285153	     68.47832215	     48.18414149	      6.22789365	     12.97684065	     10.17810730	     -9.30204972	    -16.75686485	      1.10775661	     -5.57526112	      2.94074737	     52.35504234	     37.55288938	      8.18215968	     78.30291570	     18.46185078	     -6.96523249	     -7.98789773
      2.58000000	      3.25156953	     -7.32489061	     10.74122887	     -0.11331619	      1.04464442	      0.00725377	      6.46422556	     -4.60432323	     19.47615860	     -3.86972792	     14.98141076	     -7.04653132	     50.46046503	     33.59186984	    -10.85408872	     69.10018708	     48.18119880	      6.27184346	     12.82324904	     10.11015652	     -9.38418233	    -16.75485763	      1.30484269	     -5.29641839	      2.92334028	     52.42020212	     38.01945660	      8.52613481	     79.01060769	     18.43142113	     -7.07343957	     -8.08036471
      2.59000000	      3.21777390	     -7.25552897	     10.42533963	     -0.11321412	      1.04476466	      0.00723863	      6.42808916	     -4.43903859	     19.85956859	     -3.96226322	     15.67483919	     -7.26147534	     51.00297797	     33.90053351	    -11.77987433	     69.86023040	     48.60944042	      6.34773491	     12.28916188	     10.12765386	     -9.23958114	    -17.07139506	      1.48234640	     -4.58391458	      3.13569165	     52.85326727	     38.75634550	      9.08220838	     79.39906197	     18.60774502	     -7.22100986	     -8.13075294
      2.60000000	      3.31529836	     -7.26627920	     10.64745422	     -0.11286930	      1.04541277	      0.00736400	      6.31422293	     -4.47241235	     19.91006671	     -4.11474333	     16.03812560	     -7.27678678	     51.22927212	     34.15075888	    -12.12994228	     70.67374050	     48.65157655	      6.41748378	     12.05401274	     10.07313622	     -9.22087129	    -17.08362314	      1.57583951	     -4.32783570	      3.15932877	     52.96825600	     39.19175722	      9.41202352	     80.16568325	     18.59697307	     -7.33477317	     -8.23064223
      2.61000000	      3.12701356	     -7.14385336	     10.64017001	     -0.11348514	      1.04470614	      0.00707930	      6.89135155	     -3.68632874	     21.07323429	     -3.55429609	     16.40543179	     -7.99039109	     51.77490847	     34.05239095	    -13.66179283	     71.80594101	     50.41231227	      6.45573962	     10.35501866	     10.70326862	     -8.43589913	    -18.28700880	      1.02613893	     -3.94622026	      3.97121302	     53.61604185	     40.08777617	     10.45867106	     80.67657859	     19.28476288	     -7.56262636	     -8.24854030
      2.62000000	      3.23681228	     -7.19006025	     10.80483573	     -0.11328652	      1.04526716	      0.00726214	      6.76025780	     -3.75704267	     21.08431839	     -3.72940460	     16.74399127	     -7.97578152	     51.97832235	     34.32509622	    -13.92329707	     72.64205222	     50.40239724	      6.51853559	     10.18513705	     10.60774876	     -8.45373757	    -18.27094744	      1.19040873	     -3.60205719	      3.97258151	     53.73242061	     40.45673462	     10.87210919	     81.30569360	     19.26047284	     -7.66020062	     -8.32076969
      2.63000000	      3.31695405	     -7.17284983	     10.79643381	     -0.11301432	      1.04570425	      0.00727957	      6.60573713	     -3.76472479	     21.13207451	     -3.88785774	     17.20083799	     -8.00050844	     52.27299460	     34.55368608	    -14.35784641	     73.48419164	     50.43658914	      6.54554223	      9.93720685	     10.53201260	     -8.44265175	    -18.29297720	      1.33450706	     -3.24368185	      3.99861602	     53.92348818	     40.90023426	     11.17182440	     82.02241527	     19.25687420	     -7.74724613	     -8.41463838
